<?xml version="1.0" encoding="UTF-8"?>
<svg id="Layer_2" data-name="Layer 2" xmlns="http://www.w3.org/2000/svg" viewBox="0 0 1886.41 1127.38">
  <defs>
    <style>
      .cls-1 {
        fill:rgb(255, 255, 255);
      }
    </style>
  </defs>
  <g id="Layer_1-2" data-name="Layer 1">
    <path class="cls-1" d="M1886.38,762.67c.04,2.22.03,4.48,0,6.7-.77,59.25-26.13,136.5-55.01,188.23-15.82,28.34-44.25,68.38-70.56,87.39-10.65,7.7-26.99,10.68-25.35-7.47,21.27-58.83,49.02-118.82,59.78-180.85,5.73-33.01,10.72-62.49-27.34-73.51-46.82-13.56-122.6-5.21-171.75-.37-15.22,1.5-35.42,5.99-49.96,5.98-6.71,0-13.26-3.36-13.07-10.83.26-9.79,12.47-17.91,19.79-22.74,73.71-48.55,195.45-62.27,280.7-44.45,12.29,2.57,40.23,9.25,46.66,20.4,4.46,7.72,5.96,22.84,6.11,31.51Z"/>
    <path class="cls-1" d="M808.9,461.7l2.61-8.18c33.69-140.06,64.5-281.01,100.32-420.43,3.53-7.67,7.15-11.83,15.38-14.42,13.59-4.28,56.46-3.51,72.06-2.44,21.38,1.47,26.6,9.89,31.92,29.17l98.87,420.77c1.37-.23,1.25-1.53,1.58-2.51,1.61-4.75,2.85-10.93,4.16-15.96,35.84-137.45,69.74-275.59,107.62-412.39,5.04-13.74,14.61-18.06,28.59-19.09,16.89-1.25,47.39-1.55,64.06,0,18.99,1.77,14.48,20.29,11.19,33.51-52.93,161-98.15,324.69-151.44,485.54-6.84,20.63-9.46,36.15-34.86,38.16-17.58,1.39-47.18,1.33-64.81,0-18.78-1.41-24.86-9.77-29.82-26.8l-98.35-408.26-97.79,408.07c-5.23,17-10.65,24.88-29.6,26.28-18.14,1.34-46.67,1.19-64.89,0-12.53-.82-20.68-4.69-26.55-15.92-54.64-172.97-107.34-346.87-158.49-520.95-1.07-10.85,1.86-18.66,13.67-19.68,18.15-1.56,48.71-1.18,67.12,0,20.47,1.3,26,10.27,31.83,28.52l105.62,417Z"/>
    <path class="cls-1" d="M12.14,741.25c5.32-.9,9.71.19,14.51,2.27,16.56,7.18,36.39,20.81,52.99,29.71,468.53,250.98,1029.92,287.95,1528.24,101,22.92-8.6,46.38-19.85,69.13-27.74,13.76-4.77,28.44-3.99,37.97,8.2,19.57,25.03-18.19,46.14-35.21,57.88-81.73,56.38-176.19,101.09-269.89,133.94-463.23,162.38-975.56,78-1353.93-233.21-14.71-12.1-36.26-28.58-48.82-42.08-5.72-6.14-9.95-15.59-4.8-23.41,1.92-2.91,6.34-5.99,9.81-6.58Z"/>
    <path class="cls-1" d="M530.45,409.36c2.38,5.28.84,10.88,1.22,16.99,1.49,23.79,6.67,41.89,16.29,63.42,4.15,9.3,15.57,26.92,14.99,36.26-.18,2.96-2.34,7.7-4.11,10.11-6.17,8.44-35.63,27.09-45.84,33.14-23.67,14.03-34.3,2.7-48.67-16.03-12.18-15.88-21.28-33.89-29.52-52.07l-1.87.72c-53.31,65.29-137.51,95.8-221.07,82.5-94.44-15.03-142.49-92.24-133.22-184.9,8.6-85.9,77.06-139.2,158.46-152.23,63.55-10.17,128.22,1.22,190.26,14.77l.03-54.04c-2.62-68.9-22.56-109.33-95.14-118.68-53.58-6.9-104.6,3.09-154.9,20.74-12.92,4.53-40.47,18.29-52.84,16.36-8.56-1.34-9.67-12.85-10.1-19.7-.74-11.84-1.45-43.82,5.21-52.88,7.7-10.48,37.72-22.32,50.48-27.01C235.77,2.72,312.18-5.71,381.32,6.77c103.39,18.67,145.34,86.66,148.92,187.84l.21,214.75ZM428.09,332.12c-18.93-3.78-37.86-7.98-57.06-10.37-72.75-9.06-178.94-10.15-183.61,87.41-3.94,82.1,55.35,106.61,127.6,91.81,33.75-6.91,62.68-21.02,85.56-47.07,29.8-33.92,28.04-79.12,27.51-121.79Z"/>
    <path class="cls-1" d="M1445.51,270.74c-55.38-55.6-60.27-144.94-7.73-204.25,67.71-76.44,188.21-77.7,279.45-49.89,18.94,5.77,52.01,17.02,58.08,38.03,2.49,8.61,2.56,38.06,1.45,47.56-3.33,28.51-38.62,6.18-53.38.64-13.33-5-27.05-9.03-41.03-11.88-51.44-10.48-170.62-16.97-176.73,57.52-3.39,41.34,18.61,59.99,53.13,75.73,86.4,39.41,218.25,40.37,245.3,152.57,18.28,75.83-19.18,148.51-86.8,183.66-73.33,38.12-166.68,34.93-244.59,13.55-19.31-5.3-63.54-18.66-73.48-36.8-5.88-10.73-5.65-40.84-4.51-53.41,1.81-19.93,14.19-19.1,29.89-13.69,24.75,8.53,44.91,18.65,71.34,24.78,65.64,15.2,217.38,24.68,207.81-79.63-3.51-38.22-41-54.19-72.54-65.29-59.96-21.11-139.73-33.09-185.67-79.21Z"/>
  </g>
</svg>