<svg width="13" height="13" viewBox="0 0 13 13" fill="none" xmlns="http://www.w3.org/2000/svg">
<path d="M1.91667 11.8332C1.59583 11.8332 1.32118 11.7189 1.09271 11.4905C0.864236 11.262 0.75 10.9873 0.75 10.6665V2.49984C0.75 2.179 0.864236 1.90435 1.09271 1.67588C1.32118 1.44741 1.59583 1.33317 1.91667 1.33317H2.5V0.166504H3.66667V1.33317H8.33333V0.166504H9.5V1.33317H10.0833C10.4042 1.33317 10.6788 1.44741 10.9073 1.67588C11.1358 1.90435 11.25 2.179 11.25 2.49984V5.81025C11.0653 5.72275 10.8757 5.64984 10.6812 5.5915C10.4868 5.53317 10.2875 5.48942 10.0833 5.46025V4.83317H1.91667V10.6665H5.59167C5.65972 10.8804 5.73993 11.0846 5.83229 11.279C5.92465 11.4734 6.03403 11.6582 6.16042 11.8332H1.91667ZM9.5 12.4165C8.69306 12.4165 8.00521 12.1321 7.43646 11.5634C6.86771 10.9946 6.58333 10.3068 6.58333 9.49984C6.58333 8.69289 6.86771 8.00505 7.43646 7.4363C8.00521 6.86755 8.69306 6.58317 9.5 6.58317C10.3069 6.58317 10.9948 6.86755 11.5635 7.4363C12.1323 8.00505 12.4167 8.69289 12.4167 9.49984C12.4167 10.3068 12.1323 10.9946 11.5635 11.5634C10.9948 12.1321 10.3069 12.4165 9.5 12.4165ZM10.4771 10.8853L10.8854 10.4769L9.79167 9.38317V7.74984H9.20833V9.6165L10.4771 10.8853Z" fill="#727272"/>
</svg>
