<svg width="32" height="32" viewBox="0 0 32 32" fill="none" xmlns="http://www.w3.org/2000/svg">
<rect width="32" height="32" rx="10" fill="#727272"/>
<path d="M17.7592 11.4196C17.7592 13.8109 15.8207 15.7494 13.4294 15.7494C11.0381 15.7494 9.09961 13.8109 9.09961 11.4196C9.09961 9.0283 11.0381 7.08984 13.4294 7.08984C15.8207 7.08984 17.7592 9.0283 17.7592 11.4196Z" fill="white"/>
<path d="M18.1547 19.3263C16.8299 18.2273 15.1607 17.6293 13.4392 17.6373H13.4247C11.4184 17.6422 9.54875 18.4233 8.16727 19.8389C6.83957 21.2057 6.07322 23.0459 6 25.062L18.023 25.0376C16.9225 23.2782 16.9742 21.0329 18.1547 19.3263Z" fill="white"/>
<path d="M22.4596 17.7399C19.9524 17.7399 17.9199 19.7724 17.9199 22.2796C17.9199 24.7869 19.9524 26.8193 22.4596 26.8193C24.9669 26.8193 26.9994 24.7869 26.9994 22.2796C27.0095 21.0724 26.5345 19.9119 25.6808 19.0585C24.8273 18.2048 23.6668 17.7298 22.4596 17.7399ZM24.6271 21.4351L21.8983 23.6561C21.8382 23.7067 21.7621 23.7343 21.6836 23.7343C21.5831 23.7353 21.4877 23.6903 21.4248 23.6123L20.2483 22.2405C20.1257 22.0964 20.1433 21.88 20.2874 21.7573C20.4318 21.6345 20.648 21.6521 20.7708 21.7962L21.7274 22.9142L24.1975 20.9031C24.3432 20.7845 24.5571 20.8064 24.6759 20.9519C24.7943 21.0993 24.7726 21.3144 24.6271 21.4351Z" fill="white"/>
</svg>
