<?xml version="1.0" encoding="UTF-8"?>
<svg id="Layer_2" data-name="Layer 2" xmlns="http://www.w3.org/2000/svg" viewBox="0 0 1243.58 415.87">
  <defs>
    <style>
      .cls-1 {
        fill:rgb(255, 255, 255);
      }
    </style>
  </defs>
  <g id="Layer_1-2" data-name="Layer 1">
    <path class="cls-1" d="M166.88.77c8.22.98,24.46,7.19,32.63,10.68,61.37,26.21,84.87,87.2,78.57,150.82,6.25-.21,16.33-.26,17.79,7.75-3.33,56.12,4.42,117.14.08,172.66-2.93,37.47-22.79,62.19-59.55,71.3-54.82-2.04-114.29,4.54-168.59.63-37.24-2.68-63.82-28.62-67.82-65.28l.08-179.29c1.46-8.01,11.54-7.96,17.79-7.75-.76-31.14-1.8-58.2,11.44-87.07C45.77,39.33,89.25,5.51,129.07.77c8.66-1.03,29.15-1.03,37.81,0ZM233.6,162.29v-34.29c0-71.36-93.04-108.51-144.65-59.82-9.79,9.23-26.6,37.84-26.6,50.97v43.14h171.25Z"/>
    <path class="cls-1" d="M1243.32,241.94c-.07.63-2.9,11.05-3.47,11.15-30.89-2.89-67.72,3.54-97.83.03-3.24-.38-5.72-.27-7.67-3.43V71.57h104.53c3.86,10.59,2.19,20.33,0,30.98h-66.72v36.51l3.34,3.32h50.04c3.29,11.07,1.76,19.91,0,30.98h-53.38v46.46h68.93c-1.84,4.23,2.02,9.1,2.24,11.06.35,3.13.34,7.92,0,11.06Z"/>
    <path class="cls-1" d="M1243.32,383.54l-15.22-.36-31.48-50.53v50.89h-15.57v-80.76c3.59-4.72,12.45-4.91,16.71-1.13l29.97,48.68v-50.89s15.59.01,15.59.01v84.08Z"/>
    <path class="cls-1" d="M983.11,72.68c.92-2.98,26.77-5.55,32.16-5.62,16.92-.23,47.71,2.73,62.04,11.47,35.43,21.63,30.99,77.97-5.38,96.06l41.48,71.62c2.29,2.23-1.06,6.79-2.42,6.79h-33.36c-4.97,0-44.4-74.68-50.11-85.09,16.39-8.65,34.03-16.85,34.87-38.02.92-23.27-20.66-35.68-41.47-29.55v149.34l-3.34,3.32h-34.47V72.68Z"/>
    <path class="cls-1" d="M813.28,69.67l33.19,1.76c4.29,6.13-2.02,106.59,3.74,129.03,7.78,30.28,48.26,32.1,56.66-.07,5.92-22.66-.54-122.74,3.81-128.96,10.09-3.47,25.94-3.45,35.87,0,3.84,5.48.94,119.89-1.86,133.39-5.64,27.17-23.13,46.79-51.9,50.15-111.75,13.04-78.44-114.48-82.19-183.54l2.68-1.76Z"/>
    <path class="cls-1" d="M625.04,71.57v30.98h-66.72v39.83h53.38v30.98h-53.38v46.46h65.61c5.45,7.37,5.37,26.08,0,33.19h-103.42V71.57h104.53Z"/>
    <path class="cls-1" d="M486.9,76.25l-6.65,28.33c-16.31-4.97-64.55-16-64.4,12.35.11,21.33,39.92,26.63,56.4,36.95,12.73,7.97,19.43,16.4,21.32,31.89,6.9,56.23-38.99,73.91-87.57,69.41-5.35-.49-26.84-4.97-30.08-7.67-5.93-4.94,1.19-25,4.39-31.22,22.82,6.72,85.59,16.59,72.47-25.36-6.72-21.5-68.83-18.5-74.42-58.7-9.28-66.74,61-73.36,108.54-55.98Z"/>
    <path class="cls-1" d="M773.9,104.67c-40.28-11.27-77.6-3.72-82.11,43.27-5.99,62.36,23.8,87.51,84.42,69.65l6.42,30.68c-57.18,19.23-118.88,1.24-130.34-63.32-12.83-72.26,33.05-129.16,108.97-115.04,28.79,5.36,19.31,11.72,12.65,34.75Z"/>
    <path class="cls-1" d="M642.83,302.78c1.36-4.36,13.49-4.91,16.71-1.13l30,48.69v-50.89h15.57v84.08c-4.2-.7-11.84,1.4-15.12-.47-4.78-2.73-22.81-44.76-31.58-50.42v50.89h-15.57v-80.76Z"/>
    <path class="cls-1" d="M1124.86,300c62.52-10.08,55.75,103.79-6.08,82.41-32.88-11.37-30.15-76.56,6.08-82.41ZM1119.44,365.2c3.15,3.69,11.03,5.91,15.9,5.1,20.32-3.37,22.96-65.05-10.58-54.91-12.93,3.91-13.06,40.73-5.32,49.81Z"/>
    <path class="cls-1" d="M826.31,299.46c24.35,4,28.56,36.48,8.31,49.76l19.49,34.3c-5.42-.94-16.22,2.16-20.23-1.41-1.58-1.4-20.07-35.04-19.94-37.14,10.59-5.5,19.9-11.74,14.23-25.1-2.1-4.94-18.54-9.28-18.54-3.81v67.48h-15.57v-84.08c9.94,1.13,22.77-1.56,32.25,0Z"/>
    <path class="cls-1" d="M966.43,299.46c4.73.95,16.15,10.15,18.39,14.89,11.74,24.86-9.35,47.04-35.09,42.62l.02,26.57h-17.8v-84.09c10.24,1.39,24.94-1.91,34.47,0ZM949.75,343.71c26.2-.13,27.32-30.57,0-30.98v30.98Z"/>
    <path class="cls-1" d="M629.48,299.46v15.5s-28.92-.02-28.92-.02v17.72s23.51,2.04,23.51,2.04c1.02,1.76,1.17,3.7,1.17,5.69,0,3.38-.39,6.41-3.85,7.43l-20.82.3v19.94s29.07.95,29.07.95l2.08,14.52h-48.93v-84.08h46.7Z"/>
    <path class="cls-1" d="M371.55,381.23l4.28-14.47c9.81,3.51,33.8,7.38,33.43-8.73-.31-13.39-34.15-7.67-35.62-33.2-1.54-26.76,29.5-29.85,49.1-22.03,4.07,25.69-15.27,3.64-27.7,12.34-17.79,12.44,24.09,19.43,29.56,29.97,16.8,32.38-27.9,49.98-53.03,36.12Z"/>
    <path class="cls-1" d="M484.93,301.68l-2.51,13c-4.45,2.81-20.69-6.33-28.1.81-8.17,23.89,34.31,12.33,34.29,42.18-.02,29.09-35.8,32.61-57.08,23.62l4.37-14.53c8.82,3.05,32.32,7.27,33.57-6.56,1.46-16.2-36.09-11.31-35.51-37.26.61-27.19,31.22-25.49,50.96-21.25Z"/>
    <path class="cls-1" d="M778.41,301.77l-2.46,12.87c-27.42-2.05-39.93,3.12-37.56,32.49,1.83,22.73,16.21,26.03,36.49,21.09l5.85,13.09c-80.67,27.85-84.51-101.77-2.32-79.54Z"/>
    <path class="cls-1" d="M878.58,349.24c-1.12-5.46-27.14-47.39-24.45-49.77,25.76-6.47,24.86,20.94,34.46,37.62,2.64.04,13.33-34.43,16.59-36.62,2.66-1.79,17.92-1.77,17.91.12-11.18,28.2-32.63,50.47-26.7,82.96h-17.8c-1.41-10.17,1.94-24.88,0-34.31Z"/>
    <polygon class="cls-1" points="1016.47 314.95 994.22 314.96 995.2 301.53 1052.19 300.43 1054.29 314.96 1032.04 314.95 1032.04 383.54 1016.47 383.54 1016.47 314.95"/>
    <path class="cls-1" d="M516.06,299.46v68.59l29.04.97c4.26,2.97,2,14.52-1.24,14.52h-43.37v-84.08h15.57Z"/>
    <polygon class="cls-1" points="1083.19 383.54 1065.4 383.54 1065.4 299.46 1079.51 299.81 1083.19 302.78 1083.19 383.54"/>
  </g>
</svg>